<?xml version="1.0" encoding="iso-8859-1"?>
<!-- Uploaded to: SVG Repo, www.svgrepo.com, Generator: SVG Repo Mixer Tools -->
<svg fill="#000000" height="800px" width="800px" version="1.1" id="Layer_1" xmlns="http://www.w3.org/2000/svg" xmlns:xlink="http://www.w3.org/1999/xlink" 
	 viewBox="0 0 512 512" xml:space="preserve">
<g>
	<g>
		<path d="M391.575,72.623L310.121,2.804C308.015,0.989,305.327,0,302.545,0H139.636c-19.247,0-34.909,15.663-34.909,34.909V128
			c0,6.435,5.213,11.636,11.636,11.636S128,134.423,128,128V34.909c0-6.412,5.225-11.636,11.636-11.636H298.24l78.185,67.014
			c4.876,4.177,12.23,3.619,16.407-1.257C397.009,84.154,396.451,76.8,391.575,72.623z"/>
	</g>
</g>
<g>
	<g>
		<path d="M314.182,372.364h-81.455c-6.423,0-11.636,5.213-11.636,11.636c0,6.423,5.213,11.636,11.636,11.636h81.455
			c6.423,0,11.636-5.213,11.636-11.636C325.818,377.577,320.605,372.364,314.182,372.364z"/>
	</g>
</g>
<g>
	<g>
		<path d="M244.364,418.909h-81.455c-6.423,0-11.636,5.213-11.636,11.636c0,6.423,5.213,11.636,11.636,11.636h81.455
			c6.423,0,11.636-5.213,11.636-11.636C256,424.122,250.787,418.909,244.364,418.909z"/>
	</g>
</g>
<g>
	<g>
		<path d="M186.182,372.364h-23.273c-6.423,0-11.636,5.213-11.636,11.636c0,6.423,5.213,11.636,11.636,11.636h23.273
			c6.423,0,11.636-5.213,11.636-11.636C197.818,377.577,192.605,372.364,186.182,372.364z"/>
	</g>
</g>
<g>
	<g>
		<path d="M349.091,418.909h-58.182c-6.423,0-11.636,5.213-11.636,11.636c0,6.423,5.213,11.636,11.636,11.636h58.182
			c6.423,0,11.636-5.213,11.636-11.636C360.727,424.122,355.514,418.909,349.091,418.909z"/>
	</g>
</g>
<g>
	<g>
		<circle cx="93.091" cy="244.364" r="11.636"/>
	</g>
</g>
<g>
	<g>
		<circle cx="139.636" cy="244.364" r="11.636"/>
	</g>
</g>
<g>
	<g>
		<path d="M453.818,162.909h-46.545v-46.545c0-6.423-5.213-11.636-11.636-11.636h-81.455c-6.412,0-11.636-5.225-11.636-11.636
			V58.182c0-6.423-5.213-11.636-11.636-11.636s-11.636,5.213-11.636,11.636v34.909c0,19.247,15.663,34.909,34.909,34.909H384v34.909
			H58.182c-19.247,0-34.909,15.663-34.909,34.909V384c0,19.247,15.663,34.909,34.909,34.909c6.423,0,11.636-5.213,11.636-11.636
			c0-6.423-5.213-11.636-11.636-11.636c-6.412,0-11.636-5.225-11.636-11.636V197.818c0-6.412,5.225-11.636,11.636-11.636h395.636
			c6.412,0,11.636,5.225,11.636,11.636V384c0,6.412-5.225,11.636-11.636,11.636c-6.423,0-11.636,5.213-11.636,11.636
			c0,6.423,5.213,11.636,11.636,11.636c19.247,0,34.909-15.663,34.909-34.909V197.818
			C488.727,178.572,473.065,162.909,453.818,162.909z"/>
	</g>
</g>
<g>
	<g>
		<path d="M430.545,325.818H81.455c-6.423,0-11.636,5.213-11.636,11.636c0,6.423,5.213,11.636,11.636,11.636h11.636v128
			C93.091,496.337,108.753,512,128,512h256c19.247,0,34.909-15.663,34.909-34.909V384c0-6.423-5.213-11.636-11.636-11.636
			c-6.423,0-11.636,5.213-11.636,11.636v93.091c0,6.412-5.225,11.636-11.636,11.636H128c-6.412,0-11.636-5.225-11.636-11.636v-128
			h314.182c6.423,0,11.636-5.213,11.636-11.636C442.182,331.031,436.969,325.818,430.545,325.818z"/>
	</g>
</g>
</svg>